<svg xmlns="http://www.w3.org/2000/svg" width="410" height="900" viewBox="0 0 410 900">
<defs>
    <linearGradient id="board" x1="0" y1="0" x2="1" y2="1"><stop stop-color="#101521"/><stop offset="1" stop-color="#07090F"/></linearGradient>
    <linearGradient id="brand" x1="0" y1="0" x2="1" y2="1"><stop stop-color="#45D9FF"/><stop offset=".48" stop-color="#9D6BFF"/><stop offset="1" stop-color="#FF4F9D"/></linearGradient>
    <linearGradient id="brandSoft" x1="0" y1="0" x2="1" y2="1"><stop stop-color="#45D9FF" stop-opacity=".42"/><stop offset="1" stop-color="#FF4F9D" stop-opacity=".18"/></linearGradient>
    <linearGradient id="coverA" x1="0" y1="0" x2="1" y2="1"><stop stop-color="#00D1FF"/><stop offset=".48" stop-color="#6157FF"/><stop offset="1" stop-color="#FF3F82"/></linearGradient>
    <linearGradient id="coverB" x1="0" y1="0" x2="1" y2="1"><stop stop-color="#FFC46A"/><stop offset=".5" stop-color="#FF6B8A"/><stop offset="1" stop-color="#6A4CFF"/></linearGradient>
    <radialGradient id="stage" cx="50%" cy="34%" r="72%"><stop stop-color="#7756FF" stop-opacity=".72"/><stop offset=".55" stop-color="#142947" stop-opacity=".34"/><stop offset="1" stop-color="#090B12" stop-opacity="0"/></radialGradient>
    <filter id="shadow" x="-20%" y="-20%" width="140%" height="160%"><feDropShadow dx="0" dy="22" stdDeviation="24" flood-color="#000" flood-opacity=".48"/></filter>
    <filter id="blur"><feGaussianBlur stdDeviation="26"/></filter>
    <style>
      .phone{fill:#0B0E15;stroke:#2C3342;stroke-width:2}.screenTitle{font:700 30px -apple-system,BlinkMacSystemFont,"PingFang SC",sans-serif;fill:#F7F9FF}.h1{font:800 34px -apple-system,BlinkMacSystemFont,"PingFang SC",sans-serif;fill:#fff}.h2{font:700 20px -apple-system,BlinkMacSystemFont,"PingFang SC",sans-serif;fill:#F7F9FF}.body{font:500 15px -apple-system,BlinkMacSystemFont,"PingFang SC",sans-serif;fill:#E6EAF4}.sub{font:500 13px -apple-system,BlinkMacSystemFont,"PingFang SC",sans-serif;fill:#8992A5}.tiny{font:600 11px -apple-system,BlinkMacSystemFont,"PingFang SC",sans-serif;fill:#8992A5;letter-spacing:.4px}.accent{fill:#45D9FF}.card{fill:#151A24;stroke:#2B3342;stroke-width:1}.glass{fill:#18202D;fill-opacity:.84;stroke:#3A4659;stroke-width:1}.divider{stroke:#2A3140;stroke-width:1}.pill{fill:#1A2230;stroke:#364256;stroke-width:1}.label{font:700 12px -apple-system,BlinkMacSystemFont,"PingFang SC",sans-serif;fill:#DCE3F2}.nav{font:600 11px -apple-system,BlinkMacSystemFont,"PingFang SC",sans-serif;fill:#737D91}.navOn{font:700 11px -apple-system,BlinkMacSystemFont,"PingFang SC",sans-serif;fill:#45D9FF}.white{fill:#fff}.muted{fill:#8992A5}.cyan{fill:#45D9FF}.pink{fill:#FF5A9E}.green{fill:#42E682}
    </style>
  </defs>
<g transform="translate(0 0)" filter="url(#shadow)">
    <rect width="410" height="900" rx="48" class="phone"/><rect width="410" height="900" rx="48" fill="url(#stage)"/><circle cx="120" cy="248" r="110" fill="#00D1FF" opacity=".16" filter="url(#blur)"/><circle cx="298" cy="326" r="124" fill="#FF3F82" opacity=".15" filter="url(#blur)"/>
    <text x="28" y="52" class="tiny">9:41</text><text x="326" y="52" class="tiny">5G  ●  97%</text><text x="24" y="102" class="body">⌄</text><text x="164" y="102" class="label">私人现场</text><text x="350" y="102" class="body">•••</text>
    <rect x="54" y="138" width="302" height="302" rx="38" fill="url(#coverA)"/><circle cx="205" cy="289" r="84" fill="#fff" opacity=".1"/><circle cx="205" cy="289" r="32" fill="#0B0E15" opacity=".75"/><text x="166" y="296" class="h2">MUSE</text>
    <text x="24" y="486" class="h2">谢谢侬</text><text x="24" y="513" class="sub">陈奕迅 · 网易云</text><rect x="322" y="474" width="66" height="30" rx="15" class="pill"/><text x="340" y="494" class="tiny">Hi-Res</text>
    <text x="205" y="574" text-anchor="middle" class="sub">感谢永远有歌 · 把心境道破</text><text x="205" y="614" text-anchor="middle" class="h2">哪论动或静 谁也有情</text><rect x="82" y="636" width="246" height="4" rx="2" fill="#283245"/><rect x="82" y="636" width="116" height="4" rx="2" fill="url(#brand)"/>
    <text x="24" y="664" class="tiny">01:42</text><text x="354" y="664" class="tiny">04:18</text>
    <text x="74" y="728" class="h2">↶</text><text x="134" y="731" class="h1">◀</text><circle cx="205" cy="716" r="46" fill="#F7F9FF"/><text x="192" y="728" class="h2" fill="#0B0E15">Ⅱ</text><text x="262" y="731" class="h1">▶</text><text x="332" y="728" class="h2">≡</text>
    <rect x="62" y="782" width="286" height="52" rx="26" class="glass"/><text x="90" y="814" class="label cyan">动效：流光粒子</text><text x="287" y="814" class="label">歌词 ›</text><text x="20" y="886" class="tiny">05 · IMMERSIVE PLAYER</text>
  </g>
</svg>
